HIERARCHY
ROOT Hips
{
  OFFSET 0.0000 0.0000 0.0000
  CHANNELS 6 Xposition Yposition Zposition Zrotation Xrotation Yrotation
  JOINT LeftHip
  {
    OFFSET 5.5000 0.0000 0.0000
    CHANNELS 3 Zrotation Xrotation Yrotation
    JOINT LeftKnee
    {
      OFFSET 0.0000 -17.5000 0.0000
      CHANNELS 3 Zrotation Xrotation Yrotation
      JOINT LeftAnkle
      {
        OFFSET 0.0000 -17.0000 0.0000
        CHANNELS 3 Zrotation Xrotation Yrotation
        End Site
        {
            OFFSET 0.0000 -4.7000 -2.0000
        }
      }
    }
  }
  JOINT RightHip
  {
    OFFSET -5.5000 -0.0000 0.0000
    CHANNELS 3 Zrotation Xrotation Yrotation
    JOINT RightKnee
    {
      OFFSET 0.0000 -17.5000 0.0000
      CHANNELS 3 Zrotation Xrotation Yrotation
      JOINT RightAnkle
      {
        OFFSET 0.0000 -17.0000 -0.0000
        CHANNELS 3 Zrotation Xrotation Yrotation
        End Site
        {
            OFFSET -0.0000 -4.7000 -2.0000
        }
      }
    }
  }
  JOINT Chest
  {
    OFFSET -0.0000 3.0000 -1.0000
    CHANNELS 3 Zrotation Xrotation Yrotation
    JOINT LeftCollar
    {
      OFFSET -0.0000 18.0000 1.0000
      CHANNELS 3 Zrotation Xrotation Yrotation
      JOINT LeftShoulder
      {
        OFFSET 6.5000 0.0000 0.0000
        CHANNELS 3 Zrotation Xrotation Yrotation
        JOINT LeftElbow
        {
          OFFSET 0.0000 -11.0000 -0.0000
          CHANNELS 3 Zrotation Xrotation Yrotation
          JOINT LeftWrist
          {
            OFFSET 0.0000 -10.5000 0.0000
            CHANNELS 3 Zrotation Xrotation Yrotation
            End Site
            {
                OFFSET -0.0000 -6.0000 0.0000
            }
          }
        }
      }
    }
    JOINT RightCollar
    {
      OFFSET -0.0000 18.0000 1.0000
      CHANNELS 3 Zrotation Xrotation Yrotation
      JOINT RightShoulder
      {
        OFFSET -6.5000 0.0000 0.0000
        CHANNELS 3 Zrotation Xrotation Yrotation
        JOINT RightElbow
        {
          OFFSET 0.0000 -11.0000 0.0000
          CHANNELS 3 Zrotation Xrotation Yrotation
          JOINT RightWrist
          {
            OFFSET 0.0000 -10.5000 0.0000
            CHANNELS 3 Zrotation Xrotation Yrotation
            End Site
            {
                OFFSET 0.0000 -6.0000 -0.0000
            }
          }
        }
      }
    }
    JOINT Neck
    {
      OFFSET -0.0000 18.0000 1.0000
      CHANNELS 3 Zrotation Xrotation Yrotation
      JOINT Head
      {
        OFFSET 0.0000 3.0000 0.0000
        CHANNELS 3 Zrotation Xrotation Yrotation
        End Site
        {
            OFFSET 0.0000 7.0000 0.0000
        }
      }
    }
  }
}
MOTION
Frames:	27
Frame Time:	0.016667
-0.9729 39.9974 -0.1595 0.54 -0.13 3.92 -0.86 -3.60 0.00 -0.00 13.59 0.19 0.51 -6.48 0.01 2.14 -3.04 0.25 0.00 12.71 -0.07 -1.64 -7.15 -0.40 -0.03 1.60 0.43 0.00 0.00 0.00 10.92 -4.62 -5.65 0.00 -9.60 0.92 -12.88 1.58 -4.62 0.00 0.00 0.00 -10.46 -5.33 5.63 0.00 -10.06 -0.96 14.16 2.46 0.11 0.00 0.00 0.00 0.34 -3.41 0.75 
-0.9727 39.9974 -0.1621 0.54 -0.13 3.92 -0.86 -3.60 -0.00 -0.00 13.59 0.19 0.51 -6.48 0.01 2.14 -3.04 0.25 -0.00 12.71 -0.07 -1.64 -7.14 -0.40 -0.03 1.60 0.43 0.00 0.00 0.00 10.93 -4.62 -5.65 0.00 -9.60 0.92 -12.88 1.58 -4.61 0.00 0.00 0.00 -10.45 -5.33 5.63 0.00 -10.06 -0.96 14.16 2.46 0.11 0.00 0.00 0.00 0.34 -3.41 0.75 
-0.9729 39.9974 -0.1595 0.54 -0.13 3.92 -0.86 -3.60 0.00 0.00 13.59 0.19 0.51 -6.48 0.01 2.14 -3.04 0.25 0.00 12.71 -0.07 -1.64 -7.15 -0.40 -0.03 1.60 0.43 0.00 0.00 0.00 10.92 -4.62 -5.65 0.00 -9.60 0.92 -12.88 1.58 -4.62 0.00 0.00 0.00 -10.46 -5.33 5.63 -0.00 -10.06 -0.96 14.16 2.46 0.11 0.00 0.00 0.00 0.34 -3.41 0.75 
-0.9743 39.9975 -0.1405 0.54 -0.13 3.93 -0.85 -3.57 0.00 -0.00 13.59 0.19 0.50 -6.51 -0.01 2.14 -3.01 0.26 -0.00 12.72 -0.07 -1.64 -7.19 -0.42 -0.03 1.60 0.43 0.00 0.00 0.00 10.86 -4.62 -5.66 0.00 -9.59 0.92 -12.85 1.61 -4.66 0.00 0.00 0.00 -10.52 -5.34 5.63 -0.00 -10.05 -0.96 14.19 2.45 0.10 0.00 0.00 0.00 0.34 -3.41 0.75 
-0.9754 39.9973 -0.1174 0.54 -0.13 3.95 -0.85 -3.53 0.01 0.00 13.59 0.19 0.50 -6.55 -0.03 2.14 -2.97 0.27 0.00 12.73 -0.07 -1.65 -7.23 -0.45 -0.03 1.60 0.44 0.00 0.00 0.00 10.79 -4.62 -5.66 -0.00 -9.59 0.92 -12.82 1.64 -4.71 0.00 0.00 0.00 -10.59 -5.34 5.63 0.00 -10.06 -0.96 14.22 2.45 0.08 0.00 0.00 0.00 0.34 -3.41 0.75 
-0.9738 39.9960 -0.0985 0.55 -0.13 3.96 -0.85 -3.50 0.02 -0.00 13.59 0.19 0.51 -6.57 -0.05 2.14 -2.94 0.28 0.00 12.73 -0.07 -1.65 -7.27 -0.47 -0.02 1.60 0.45 0.00 0.00 0.00 10.77 -4.62 -5.66 0.00 -9.59 0.91 -12.81 1.66 -4.73 0.00 0.00 0.00 -10.62 -5.34 5.62 0.00 -10.11 -0.96 14.25 2.47 0.07 0.00 0.00 0.00 0.34 -3.41 0.74 
-0.9726 39.9946 -0.0845 0.55 -0.13 3.98 -0.86 -3.47 0.02 -0.00 13.58 0.19 0.51 -6.59 -0.07 2.14 -2.91 0.29 0.00 12.73 -0.07 -1.65 -7.29 -0.49 -0.02 1.60 0.45 0.00 0.00 0.00 10.76 -4.62 -5.66 0.00 -9.59 0.91 -12.82 1.67 -4.75 0.00 0.00 0.00 -10.63 -5.34 5.62 -0.00 -10.17 -0.97 14.27 2.49 0.07 0.00 0.00 0.00 0.34 -3.41 0.74 
-0.9750 39.9937 -0.0807 0.55 -0.13 4.00 -0.86 -3.46 0.03 -0.00 13.57 0.19 0.51 -6.59 -0.10 2.14 -2.90 0.29 0.00 12.72 -0.07 -1.65 -7.29 -0.52 -0.02 1.60 0.46 0.00 0.00 0.00 10.75 -4.61 -5.66 0.00 -9.58 0.91 -12.83 1.68 -4.77 0.00 0.00 0.00 -10.63 -5.34 5.61 0.00 -10.20 -0.98 14.28 2.49 0.07 0.00 0.00 0.00 0.34 -3.41 0.74 
-0.9783 39.9932 -0.0811 0.55 -0.13 4.02 -0.85 -3.46 0.03 0.00 13.57 0.19 0.50 -6.59 -0.12 2.15 -2.89 0.29 0.00 12.72 -0.07 -1.66 -7.29 -0.54 -0.02 1.60 0.46 0.00 0.00 0.00 10.75 -4.61 -5.66 0.00 -9.58 0.91 -12.84 1.69 -4.78 0.00 0.00 0.00 -10.63 -5.34 5.62 -0.00 -10.22 -0.98 14.29 2.49 0.07 0.00 0.00 0.00 0.34 -3.41 0.74 
-0.9801 39.9931 -0.0813 0.55 -0.14 4.04 -0.85 -3.46 0.03 -0.00 13.57 0.18 0.49 -6.59 -0.14 2.15 -2.89 0.30 0.00 12.72 -0.07 -1.67 -7.29 -0.56 -0.02 1.60 0.46 0.00 0.00 0.00 10.75 -4.61 -5.67 0.00 -9.58 0.91 -12.85 1.70 -4.78 0.00 0.00 0.00 -10.63 -5.34 5.68 -0.00 -10.23 -0.96 14.29 2.47 0.03 0.00 0.00 0.00 0.34 -3.42 0.74 
-0.9820 39.9931 -0.0824 0.56 -0.14 4.05 -0.85 -3.47 0.03 -0.00 13.57 0.18 0.49 -6.58 -0.15 2.15 -2.89 0.30 -0.00 12.72 -0.07 -1.67 -7.29 -0.57 -0.02 1.60 0.46 0.00 0.00 0.00 10.75 -4.61 -5.67 -0.00 -9.58 0.91 -12.85 1.71 -4.78 0.00 0.00 0.00 -10.63 -5.34 5.74 0.00 -10.24 -0.93 14.29 2.46 -0.01 0.00 0.00 0.00 0.34 -3.41 0.74 
-0.9847 39.9931 -0.0838 0.57 -0.14 4.07 -0.85 -3.48 0.04 0.00 13.57 0.18 0.48 -6.58 -0.18 2.15 -2.88 0.30 -0.00 12.71 -0.07 -1.67 -7.29 -0.59 -0.02 1.60 0.46 0.00 0.00 0.00 10.76 -4.61 -5.67 -0.00 -9.59 0.92 -12.86 1.75 -4.79 0.00 0.00 0.00 -10.63 -5.35 5.77 0.00 -10.24 -0.93 14.29 2.46 -0.01 0.00 0.00 0.00 0.34 -3.35 0.74 
-0.9881 39.9932 -0.0857 0.57 -0.14 4.09 -0.84 -3.48 0.04 -0.00 13.57 0.18 0.48 -6.57 -0.19 2.15 -2.88 0.30 0.00 12.71 -0.07 -1.68 -7.29 -0.61 -0.02 1.60 0.46 0.00 0.00 0.00 10.76 -4.61 -5.66 0.00 -9.60 0.92 -12.86 1.79 -4.80 0.00 0.00 0.00 -10.63 -5.34 5.79 -0.00 -10.24 -0.93 14.29 2.46 0.00 0.00 0.00 0.00 0.34 -3.28 0.74 
-0.9929 39.9934 -0.0904 0.58 -0.14 4.12 -0.84 -3.49 -0.00 -0.00 13.57 0.16 0.48 -6.55 -0.16 2.15 -2.88 0.31 0.00 12.70 -0.07 -1.69 -7.28 -0.64 -0.01 1.60 0.47 0.00 0.00 0.00 10.76 -4.61 -5.65 0.00 -9.61 0.92 -12.86 1.82 -4.81 0.00 0.00 0.00 -10.63 -5.28 5.80 -0.00 -10.21 -0.94 14.32 2.41 0.01 0.00 0.00 0.00 0.34 -3.20 0.74 
-0.9976 39.9935 -0.0914 0.58 -0.14 4.14 -0.84 -3.49 -0.05 0.00 13.58 0.15 0.47 -6.55 -0.12 2.16 -2.88 0.31 -0.00 12.71 -0.07 -1.70 -7.29 -0.67 -0.01 1.60 0.47 0.00 0.00 0.00 10.76 -4.61 -5.66 -0.00 -9.61 0.92 -12.86 1.84 -4.81 0.00 0.00 0.00 -10.63 -5.21 5.81 0.00 -10.19 -0.95 14.36 2.36 0.03 0.00 0.00 0.00 0.34 -3.12 0.74 
-1.0012 39.9937 -0.0814 0.59 -0.14 4.16 -0.84 -3.50 -0.07 0.00 13.62 0.15 0.46 -6.58 -0.13 2.17 -2.88 0.31 -0.00 12.75 -0.07 -1.71 -7.33 -0.69 -0.01 1.62 0.47 0.00 0.00 0.00 10.76 -4.63 -5.72 -0.00 -9.60 0.89 -12.86 1.83 -4.79 0.00 0.00 0.00 -10.63 -5.19 5.81 0.00 -10.21 -0.96 14.38 2.36 0.05 0.00 0.00 0.00 0.34 -3.04 0.74 
-1.0029 39.9933 -0.0646 0.59 -0.14 4.18 -0.84 -3.50 -0.09 0.00 13.66 0.16 0.45 -6.63 -0.14 2.17 -2.88 0.31 -0.00 12.81 -0.08 -1.71 -7.38 -0.71 -0.01 1.66 0.47 0.00 0.00 0.00 10.75 -4.64 -5.78 -0.00 -9.60 0.87 -12.85 1.81 -4.80 0.00 0.00 0.00 -10.63 -5.17 5.82 -0.00 -10.23 -0.97 14.39 2.36 0.06 0.00 0.00 0.00 0.34 -2.95 0.74 
-1.0020 39.9913 -0.0423 0.59 -0.14 4.20 -0.84 -3.48 -0.10 -0.00 13.68 0.17 0.45 -6.67 -0.15 2.17 -2.85 0.31 0.00 12.83 -0.09 -1.71 -7.44 -0.72 -0.01 1.73 0.51 0.00 0.00 0.00 10.75 -4.60 -5.77 -0.00 -9.62 0.88 -12.84 1.78 -4.89 0.00 0.00 0.00 -10.61 -5.13 5.86 -0.00 -10.23 -0.97 14.38 2.34 0.03 0.00 0.00 0.00 0.34 -2.87 0.77 
-0.9976 39.9886 -0.0158 0.59 -0.15 4.21 -0.85 -3.46 -0.12 0.00 13.75 0.18 0.45 -6.75 -0.15 2.16 -2.83 0.30 -0.00 12.90 -0.10 -1.71 -7.52 -0.71 -0.02 1.82 0.54 0.00 0.00 0.00 10.75 -4.53 -5.80 0.00 -9.67 0.88 -12.83 1.76 -4.98 0.00 0.00 0.00 -10.62 -5.06 5.90 -0.00 -10.23 -0.97 14.39 2.30 0.01 0.00 0.00 0.00 0.34 -2.73 0.79 
-0.9913 39.9865 0.0098 0.59 -0.18 4.21 -0.86 -3.47 -0.14 -0.00 13.93 0.21 0.46 -6.88 -0.16 2.16 -2.83 0.29 0.00 13.06 -0.12 -1.70 -7.64 -0.69 -0.02 1.93 0.53 0.00 0.00 0.00 10.75 -4.43 -5.94 -0.00 -9.73 0.85 -12.82 1.73 -4.98 0.00 0.00 0.00 -10.71 -4.91 5.90 0.00 -10.25 -0.97 14.44 2.22 0.04 0.00 0.00 0.00 0.37 -2.53 0.78 
-0.9742 39.9825 0.0446 0.59 -0.25 4.21 -0.88 -3.48 -0.17 0.00 14.22 0.25 0.48 -7.09 -0.17 2.14 -2.84 0.29 -0.00 13.34 -0.16 -1.67 -7.85 -0.65 -0.03 2.09 0.54 0.00 0.00 0.00 10.74 -4.37 -6.19 0.00 -9.88 0.78 -12.81 1.78 -4.95 0.00 0.00 0.00 -10.83 -4.77 5.92 -0.00 -10.30 -0.96 14.53 2.16 0.06 0.00 0.00 0.00 0.41 -2.06 0.77 
-0.9415 39.9751 0.1018 0.60 -0.37 4.21 -0.93 -3.46 -0.20 -0.00 14.60 0.30 0.52 -7.39 -0.17 2.10 -2.85 0.30 0.00 13.80 -0.22 -1.61 -8.18 -0.60 -0.04 2.32 0.60 0.00 0.00 0.00 10.67 -4.50 -6.60 0.00 -10.20 0.66 -12.79 2.03 -4.95 0.00 0.00 0.00 -10.95 -4.75 5.90 0.00 -10.39 -0.99 14.64 2.21 0.07 0.00 0.00 0.00 0.47 -0.83 0.81 
-0.8823 39.9628 0.1677 0.61 -0.57 4.19 -1.02 -3.42 -0.24 0.00 15.17 0.36 0.60 -7.80 -0.15 2.02 -2.86 0.31 -0.00 14.47 -0.32 -1.51 -8.64 -0.50 -0.06 2.64 0.70 0.00 0.00 0.00 10.59 -4.58 -7.17 0.00 -10.65 0.51 -12.76 2.31 -4.85 0.00 0.00 0.00 -11.12 -4.79 6.11 -0.00 -10.49 -0.92 14.83 2.21 -0.09 0.00 0.00 0.00 0.50 0.32 0.87 
-0.7840 39.9443 0.2341 0.63 -0.91 4.16 -1.19 -3.35 -0.32 -0.00 15.99 0.45 0.74 -8.34 -0.09 1.88 -2.86 0.36 0.00 15.41 -0.44 -1.33 -9.24 -0.39 -0.07 3.05 0.82 0.00 0.00 0.00 10.54 -4.39 -8.00 0.00 -11.22 0.32 -12.74 2.47 -4.43 0.00 0.00 0.00 -11.42 -4.85 6.98 -0.00 -10.52 -0.55 15.19 1.96 -0.75 0.00 0.00 0.00 0.41 0.42 0.94 
-0.6472 39.9170 0.2983 0.63 -1.37 4.10 -1.42 -3.30 -0.42 0.00 17.10 0.58 0.94 -9.03 0.03 1.68 -2.86 0.31 -0.00 16.57 -0.63 -1.08 -9.95 -0.07 -0.09 3.59 0.97 0.00 0.00 0.00 10.51 -4.08 -8.86 -0.00 -11.93 0.19 -12.74 2.60 -4.01 0.00 0.00 0.00 -11.77 -4.90 8.02 0.00 -10.58 -0.18 15.61 1.63 -1.45 0.00 0.00 0.00 0.31 0.29 1.04 
-0.4560 39.8789 0.3745 0.60 -1.94 3.99 -1.70 -3.27 -0.56 -0.00 18.53 0.73 1.22 -9.92 0.23 1.40 -2.80 0.06 0.00 17.89 -0.94 -0.69 -10.76 0.65 -0.15 4.30 1.17 0.00 0.00 0.00 10.49 -3.75 -9.54 0.00 -12.80 0.22 -12.75 2.76 -3.85 0.00 0.00 0.00 -12.12 -4.90 8.85 -0.00 -10.72 -0.08 16.00 1.35 -1.77 0.00 0.00 0.00 0.24 0.56 1.16 
-0.2470 39.8268 0.4045 0.52 -2.63 3.84 -1.98 -3.40 -0.72 0.00 20.37 0.94 1.53 -10.95 0.47 1.09 -2.84 -0.40 -0.00 19.48 -1.33 -0.23 -11.63 1.74 -0.22 5.17 1.44 0.00 0.00 0.00 10.55 -3.34 -10.08 -0.00 -13.87 0.34 -12.79 2.93 -3.95 0.00 0.00 0.00 -12.47 -4.83 9.61 0.00 -10.97 -0.09 16.39 1.06 -1.92 0.00 0.00 0.00 0.29 0.85 1.32 
